<?xml version="1.0" standalone="no"?>
<!DOCTYPE svg PUBLIC "-//W3C//DTD SVG 20010904//EN"
 "http://www.w3.org/TR/2001/REC-SVG-20010904/DTD/svg10.dtd">
<svg version="1.0" xmlns="http://www.w3.org/2000/svg"
 width="460.000000pt" height="460.000000pt" viewBox="0 0 460.000000 460.000000"
 preserveAspectRatio="xMidYMid meet">
<metadata>
Created by potrace 1.11, written by Peter Selinger 2001-2013
</metadata>
<g transform="translate(0.000000,460.000000) scale(0.100000,-0.100000)"
fill="#000000" stroke="none">
<path d="M2645 4191 c-16 -14 -132 -48 -225 -66 -90 -17 -163 -34 -246 -57
-44 -12 -55 -12 -82 1 -29 13 -40 12 -124 -8 -112 -27 -240 -66 -288 -87 -86
-39 -120 -56 -126 -65 -12 -20 -24 -7 -24 26 0 73 -77 107 -146 64 -77 -47
-224 -246 -224 -303 0 -13 -4 -15 -18 -7 -10 5 -42 13 -70 17 -43 5 -57 3 -87
-16 l-37 -23 3 -81 4 -81 -45 -6 c-68 -9 -144 -37 -181 -68 -28 -24 -34 -35
-34 -69 0 -37 6 -46 55 -90 l54 -49 -76 -74 c-90 -88 -118 -131 -118 -181 0
-31 6 -41 41 -69 22 -17 55 -35 72 -39 38 -7 38 -10 2 -110 -23 -64 -26 -87
-23 -162 3 -75 6 -90 27 -112 14 -14 35 -26 48 -26 19 0 30 -13 60 -75 l36
-75 -60 -54 c-69 -63 -117 -150 -134 -240 -15 -85 4 -201 43 -258 10 -14 18
-30 18 -35 0 -5 26 -34 57 -64 63 -61 143 -105 213 -117 34 -6 46 -12 48 -27
13 -84 83 -245 140 -323 65 -91 160 -179 240 -222 20 -11 55 -31 77 -43 22
-12 63 -31 90 -41 28 -10 53 -22 58 -25 4 -4 -8 -25 -27 -46 -39 -43 -143
-246 -177 -345 -12 -36 -25 -69 -29 -75 -4 -5 -17 -44 -29 -85 -12 -41 -28
-91 -35 -110 -21 -53 -56 -165 -56 -178 0 -8 17 -12 45 -12 44 0 44 1 56 43 6
23 17 56 24 72 7 17 16 46 20 65 11 51 12 52 53 26 44 -28 116 -60 156 -70 30
-7 31 -17 10 -109 l-6 -27 60 0 c45 0 61 4 66 16 3 9 9 95 13 191 6 164 5 177
-12 189 -51 38 -87 5 -94 -85 l-6 -66 -29 3 c-17 2 -41 11 -55 21 -14 10 -34
21 -44 24 -15 6 -17 13 -11 44 4 21 15 55 25 75 11 21 19 42 19 47 0 26 117
205 177 269 l68 74 65 -15 c80 -19 269 -37 381 -37 101 0 361 25 407 39 58 17
134 -35 220 -152 46 -61 122 -204 122 -227 0 -9 4 -20 9 -25 5 -6 14 -27 19
-48 10 -36 9 -39 -16 -48 -15 -6 -49 -21 -77 -34 l-50 -23 -7 85 c-3 46 -9 91
-12 99 -7 19 -70 18 -86 -1 -13 -16 -11 -122 7 -338 l6 -77 48 0 48 0 3 58 3
57 85 42 c47 23 87 40 89 37 2 -2 14 -45 26 -96 l22 -93 48 -3 47 -3 -7 33
c-4 18 -18 70 -31 114 -14 51 -21 94 -18 115 5 26 -5 63 -40 153 -26 65 -59
141 -75 170 -16 28 -41 75 -56 104 -15 29 -48 75 -72 103 -25 27 -44 51 -42
53 2 2 40 19 84 37 167 69 302 179 400 328 49 75 105 192 126 265 8 27 19 50
24 51 6 1 35 8 65 15 139 32 256 150 295 299 19 74 19 128 0 201 -24 93 -59
148 -139 218 l-38 33 15 52 c9 29 17 61 19 72 2 11 14 22 27 25 47 11 65 51
69 158 l4 98 32 14 c67 30 80 74 46 160 l-20 51 22 30 c45 60 14 174 -69 255
-42 40 -51 61 -34 80 17 18 51 139 51 181 0 33 -6 50 -25 68 -28 29 -79 33
-109 10 -24 -18 -76 -20 -76 -2 0 6 7 39 15 72 19 81 19 251 -1 329 -17 69
-63 146 -99 170 -50 33 -118 9 -133 -47 -4 -14 -10 -27 -14 -27 -5 0 -48 0
-98 0 l-89 0 1 45 c1 86 -64 119 -150 77 -20 -11 -68 -26 -107 -36 -100 -23
-187 -44 -210 -51 -18 -5 -20 -1 -20 40 -1 38 -5 50 -25 66 -26 19 -89 26
-105 10z m-660 -1308 c125 -24 428 -23 540 1 44 10 143 20 221 23 151 6 189 0
254 -43 39 -26 103 -106 115 -144 4 -14 11 -29 15 -35 8 -12 39 -101 76 -220
15 -49 30 -92 33 -95 3 -3 12 -13 20 -22 12 -16 11 -18 -18 -18 -24 0 -34 6
-47 33 -10 17 -33 49 -53 70 -34 35 -38 37 -100 37 -91 0 -287 -40 -473 -96
-26 -8 -22 -23 10 -35 27 -11 27 -11 -28 -31 -77 -28 -345 -37 -440 -15 -128
31 -165 43 -142 49 12 4 22 11 22 16 0 26 -374 111 -487 112 l-71 0 -37 -42
c-27 -31 -34 -36 -26 -18 5 14 20 59 31 100 76 262 139 364 244 391 46 12 237
2 341 -18z m10 -635 c57 -19 69 -49 60 -152 -8 -103 -39 -180 -86 -218 -53
-42 -129 -51 -428 -47 -247 4 -257 5 -293 27 -43 27 -54 60 -52 157 1 61 24
167 47 214 12 25 15 26 127 31 215 9 582 2 625 -12z m1344 -26 c32 -62 53
-161 55 -250 1 -79 0 -85 -26 -107 -24 -20 -41 -24 -153 -30 -70 -4 -213 -5
-319 -3 -174 5 -195 7 -238 28 -57 29 -92 87 -107 180 -24 147 -9 196 65 210
21 4 189 8 371 9 l333 1 19 -38z m-2399 -121 c16 -56 36 -122 45 -147 8 -25
15 -66 15 -93 0 -26 4 -72 9 -102 5 -30 12 -74 15 -97 l7 -44 -31 7 c-42 9
-113 50 -147 85 -16 16 -41 55 -58 87 -25 49 -29 69 -29 138 0 66 4 90 26 136
24 53 104 147 114 136 3 -3 18 -50 34 -106z m2792 72 c14 -16 41 -53 59 -83
31 -52 33 -60 33 -150 0 -87 -2 -100 -29 -148 -16 -29 -44 -68 -62 -86 -56
-56 -185 -111 -170 -73 3 8 8 40 12 73 8 77 40 233 63 309 43 142 57 185 63
185 3 0 17 -12 31 -27z m-1323 3 c38 -20 53 -46 91 -156 18 -52 37 -104 42
-114 16 -30 67 -69 112 -87 55 -22 291 -31 518 -21 177 8 178 8 215 38 l37 30
40 -40 39 -39 -22 -111 c-30 -148 -45 -192 -102 -312 -99 -209 -232 -329 -459
-417 -359 -139 -896 -139 -1250 0 -286 112 -429 258 -510 518 -30 94 -58 234
-62 300 -3 56 -1 60 19 63 13 2 29 13 37 24 15 21 15 21 50 -9 19 -18 51 -34
74 -38 22 -3 165 -7 318 -8 295 -1 332 3 395 46 47 31 70 70 108 178 41 116
54 137 94 154 43 19 180 19 216 1z"/>
<path d="M1305 2161 c-25 -6 -30 -11 -28 -34 3 -38 54 -111 81 -115 30 -5 40
24 20 59 -14 24 -14 28 -1 33 19 8 112 7 140 0 l23 -6 -20 -28 c-60 -84 28
-192 131 -161 48 14 83 67 77 116 -5 40 5 37 65 -20 32 -29 42 -33 58 -25 28
16 23 36 -20 79 -52 52 -130 87 -224 100 -84 12 -253 13 -302 2z"/>
<path d="M2970 2157 c-83 -16 -174 -61 -211 -106 -34 -42 -36 -57 -10 -71 16
-8 28 -2 68 35 26 25 50 45 53 45 4 0 4 -16 2 -35 -6 -48 28 -100 75 -116 100
-33 187 67 135 155 l-20 34 21 6 c29 8 121 8 141 0 14 -6 14 -9 -1 -34 -39
-67 24 -81 68 -15 33 50 41 76 29 95 -12 19 -257 24 -350 7z"/>
<path d="M2485 1358 c-11 -6 -45 -27 -75 -47 -51 -33 -61 -36 -126 -36 -43 1
-78 6 -87 14 -26 21 -119 18 -150 -4 -70 -52 -59 -164 22 -223 46 -33 154 -62
233 -62 114 0 283 70 327 135 29 43 39 122 21 165 -25 60 -109 89 -165 58z
m110 -87 c33 -66 -34 -146 -158 -187 -69 -23 -247 -17 -302 11 -53 26 -84 82
-67 119 14 31 41 33 142 10 98 -22 191 -4 255 50 21 18 42 25 72 26 37 0 44
-4 58 -29z"/>
<path d="M2217 462 c-9 -10 -23 -36 -30 -58 -10 -27 -21 -40 -36 -42 -12 -2
-27 -14 -33 -27 -13 -29 -2 -109 17 -125 8 -7 15 -16 15 -21 0 -4 12 -21 26
-36 l26 -28 -73 -8 c-106 -12 -189 -55 -189 -99 0 -26 23 -22 59 11 34 32 96
51 167 51 42 0 51 -4 85 -40 46 -48 75 -51 114 -10 16 17 45 35 64 40 40 11
141 13 165 4 23 -9 20 -31 -5 -39 -32 -10 -4 -35 40 -34 20 0 31 3 24 5 -7 3
-10 18 -6 37 4 25 0 37 -17 52 -18 17 -36 20 -105 20 l-83 0 19 37 c11 22 19
58 19 87 0 44 -4 54 -37 86 -31 30 -43 35 -84 35 l-49 0 2 44 c1 25 -4 51 -11
60 -18 21 -64 20 -84 -2z m55 -34 c3 -7 0 -34 -4 -61 -5 -27 -7 -55 -4 -63 6
-16 36 -19 36 -4 0 6 23 10 52 10 66 0 88 -18 88 -74 0 -70 -49 -125 -111
-126 -42 0 -113 46 -131 85 -6 14 -14 25 -18 25 -11 0 -30 49 -30 76 0 14 4
22 10 19 18 -11 48 15 55 47 12 58 47 97 57 66z"/>
</g>
</svg>
